<?xml version="1.0" encoding="UTF-8"?>
<svg xmlns="http://www.w3.org/2000/svg" version="1.1" viewBox="0 0 650.2 636.1">
  <defs>
    <style>
      .cls-1 {
        fill: #36bdea;
      }

      .cls-2 {
        fill: #333491;
      }

      .cls-3 {
        fill: #0a83ca;
      }

      .cls-4 {
        fill: #473c29;
      }
    </style>
  </defs>
  <!-- Generator: Adobe Illustrator 28.6.0, SVG Export Plug-In . SVG Version: 1.2.0 Build 709)  -->
  <g>
    <g id="Capa_1">
      <g id="Capa_1-2" data-name="Capa_1">
        <path class="cls-2" d="M19.1,423c.9-2.5,2-5,2.8-7.5,1.9-5.5,4.3-10.9,6-16.6.2-.4.2-.8.4-1.1.7-1.4,1.3-2.5,1.8-4,.1-.4.3-.8.4-1.2.6-1.9,1.4.9,1.4,2,0,2.1.2,4.3.3,6.4.2,4,.4,7.3,1,11.8.1,1.4.2,2.9.3,4.3,0,1.3.4,3,.5,4.2.7,5.2,3.4,10.3,5.3,14.8.2.6.4,1.2.6,1.8.9,1.7.8,1.5,1.3,2.8.7,1.9,2.1,3.5,2.8,5,1.9,4.5,4.7,7,7.8,9.7,5.8,4.9,13.4,6.5,20.4,7.1.9.1,1.9.2,2.8.3,3.6.1,4.9.1,8.2,0,.5,0,1,0,1.5,0,9.7.4,18.6-2.6,27.1-6.6,18.2-8.5,32.5-22,44.3-37.9,10.5-14,18.6-29.4,22.9-46.6,3-12.1,4.7-24.2,1.7-36.5-1.9-7.7-5.3-14.6-10.6-20.3-10.7-11.5-24.5-16.3-39.9-16.4-9.9-.1-19.5,1.3-29,4.2-10.3,3.2-20.1,7.5-29.3,13.2-2.3,1.5-4.2,2.3-7.7,3.7,0-.4.2-.7.3-1.1,1-.3.5-.6,1.5-2,.5-1.9,2.3-2.8,3.3-4.2,1.1,0,1.4-.9,1.9-1.5,4.5-5.1,9.1-10.2,13.5-15.3,3.9-4.5,8.4-8.3,12.4-12.7.4-.4.8-.5,1.1-.8.9-.6,1.8-1.2,2.6-2,8-7.4,17.1-13.2,26.1-19,1.3-.9,2.5-1.4,4.1-2.6.3-.1.5-.4.8-.5,2.1-1,3.9-2.1,6.5-3.3.4-.1.7-.3,1-.4,7.9-2.5,15.4-6,23.5-7.9,4.2-1,8.6-1.1,12.6-2.8,1.5-.1,2.9-.2,4.4-.3,7.1,0,14.1,0,21.1,0,1.7.1,3.4.2,5.1.3,2.5,1.1,3.4,1.2,5.2,1.5,8.1,1.3,15.9,3.8,23.5,6.9,6.6,2.7,12.5,6.4,18.8,9.6.3.2.6.3.8.5,4.8,4.3,9.6,8.6,14.3,13,.1.2.2.3.4.5,0,.5.2.8.7.8.9,1.1,1.9,2.2,2.8,3.3,0,.4.2.7.6.7,14.3,19.9,17.6,42.1,14.4,65.9-2.2,15.9-6.9,31.1-12.6,46-7.1,18.4-15.9,36-25.2,53.3-15,27.6-31.6,54.3-52.4,78-11.2,12.8-23.5,24.5-37.6,34-17,11.4-35.7,18.9-56.2,20.9-16.6,1.6-31.1-4.3-44.4-13.7-2.4-1.7-4.7-3.6-7.1-5.5-1.5-1-2.1-1.8-2.8-2.3-1.9-1.8-3.8-3.7-5.7-5.6-.6-.9-.8-1.3-1.3-1.8-4.8-5.7-9-11.6-13.1-17.8-1.3-2-2.6-4.2-4.1-6-.6-1.3-1.2-2.6-1.8-3.9-.8-1.5-.6-1.3-1.1-2.3h0c-.7-1.6-.8-1.5-1.3-3.1-.1-.5-.4-1.1-.6-1.5-.7-1.7-.8-1.9-1.5-3.8-.2-.7-.4-1.4-.6-2.1-.4-1-.5-1.5-1-2.6-.2-.6-.3-1.3-.5-1.9-1.5-4.8-1.9-7.7-3-12.4,0-.1-.3-1-.4-1.3-.1-.9-.2-1.9-.4-2.8-.4-2.7-1.1-4.8-1.3-7.2-.4-8-.5-16,0-24.1.5-3.9,1.1-7.4,1.4-11,0-.5.1-.9.2-1.4.1-1.7,1.4-5.9,1.8-9,.1-.9.3-1.8.4-2.7.4-1.8.7-2.9,1.3-4.2M180.2,508.3c3.1-2.9,5.9-6.1,9.2-8.6,5.1-3.7,8.9-8.7,12.7-13.5,4.9-6.3,9.9-12.7,14.7-19.1,4.4-5.9,8-12.3,12.2-18.4,2.1-3,3.6-6.5,5.8-9.4,3.4-4.3,5.6-9.3,8.5-13.9,4.3-6.8,3.8-15.3,8.9-21.7,2.5-3.1,3.6-7.3,5.1-11.1,5-12.6,8.6-25.6,11.1-38.9,2.5-13.1,3.8-26.2,2.5-39.6-.8-8.6-2.6-16.9-7-24.1-4.8-7.9-11.9-13.8-19.5-19.4-9.2-6.7-19.9-9.5-30.3-13-10.8-3.6-22.2-2-33.4-1.6-5.7.2-11.2,2.1-16.8,3.1-5.3.9-10.2,2.4-15.2,4.3-1,.4-3.5,1.5-2.1,2.2s1.9.9,2.9,1.1c7.4,1.4,15.1.9,22.7,1.3,11.2.6,21.5,4.4,32,7.4,7.4,2.1,12.9,8.1,19.4,12.2.8.5,1.2,1.5,1.7,2.4.6,1.2,1.6,2.1,2.6,3.1,5.8,5.3,9.2,12.4,11.8,19.4,2.5,6.8,3.7,14.2,4.3,21.7,1.1,13.7.4,27.3-2.1,40.8-1.4,7.4-3.2,14.7-5.3,21.9-.8,2.7-.8,5.7-2.2,8.2-1.9,3.6-3.3,7.5-4.6,11.2-2.1,5.8-4.4,11.4-6.9,17-4.2,9.6-9,18.9-14.2,28.1-1.4,2.5-3.3,4.5-4.9,6.5-1.4,1.9-2.4,4.2-3.9,6.4-2.8,4.1-5.5,8.3-7.7,12.7-.8,1.6-1.7,2.2-2.8,4.1-1.9,3.4-4,6.2-6,9.5-1.4,2.4-2.9,4.5-3.4,7.5h0Z"/>
        <path class="cls-4" d="M539.8,127.8"/>
        <path class="cls-4" d="M542,125.6"/>
        <path class="cls-4" d="M543.5,124.2"/>
        <path class="cls-4" d="M545.8,122"/>
        <path class="cls-2" d="M519.5,148.2l-.2.2c-3.1,2.6-3,3,.5,5.5.2.1.3.2.4.3.9.7,1,.8,1.6,1.4.3.2.6.5.8.7.4.4.6.6,1,1,1.2,1.1,2.4,2.3,3.6,3.4h0c.5.6.9,1.1,1.4,1.6.3.4.5.5.7.8.3.4.7.9,1,1.3.7.9,1.2,1.3,1.7,1.9.3.3.6.6.9.9.5.8,1.1,1.4,1.6,1.9.3.4.7.8,1.1,1.2,2.5,4.4,5,8.8,7.5,13.1,1,3.2,1.2,5.9.8,9.1-.9,2.9-2.6,5.4-4.2,8.2-.2.2-.2.4-.4.7-.4.5-.5.7-1.1,1.3,0,0-.2.3-.2.3-5.5,5.5-12.8,7.5-19.8,10.2-3.2.7-6.8.4-9.7,1.1-10.9,2.8-20.8.4-30-4.9-5.7-3.3-11.4-5.6-17.9-5.3-11.7.6-21.6,6.6-30.8,12.8-6.9,4.6-13.4,10.2-18.5,17.1-3.8,5.2-8.5,9.7-12.1,15-4.2,6.1-7.8,12.5-11.4,19-3.1,5.7-5.1,11.8-6.7,17.9-1.5,5.9-3,11.7-5.3,17.3-2.4,5.7-5,11.6-6.3,17.4-2,9.1-6.1,17.4-8.6,26.2-2.6,8.8-6.4,17.4-9.7,26-4.7,12.4-8.4,25.2-15.7,36.4-.3.4-.3,1-.5,1.4-2.2,7.3-5.6,14.1-8.9,21-3,6.3-6.4,12.6-9.4,18.9-3.9,8.2-7.9,16.3-12.7,23.9-4.3,6.8-8.8,13.5-12.7,20.4-6.1,10.9-14.5,19.8-22.1,29.4-6.4,8-14.1,15-21.7,21.9-8.4,7.5-16.9,15-26.4,21.1-12.1,7.8-24.5,14.9-37.5,21.1-10.4,5-21,9.6-32,12.8-12.4,3.6-24.8,6.7-37.6,9-14.9,2.7-29.8,4-44.8,4.8-3.3.2-6.5.3-9.4,1.9-3.6-5.8-3.1-8.2,2.2-10,1.4-.4.8-.2,2-.5,18.2-3,35.8-7.9,52.9-14.7,25.4-10,48.3-23.9,69.1-41.6,21.9-18.8,40-40.7,55.8-64.8,13.2-20.1,24.5-41.4,34.5-63.2,8.5-18.4,16.3-37.2,23.3-56.2,5.8-15.5,11.8-31,17.6-46.5,6.1-16.1,11.7-32.3,18.2-48.2,11.8-28.9,24.6-57.3,43.1-82.6,8.7-11.9,19.1-22.2,30.8-31.3,10.2-7.9,21-14.4,33-19.1,9.1-3.6,18.6-5.5,28.4-4.8,3.7.3,6.1-1,8.1-4,8.5-12.9,17.4-25.5,27-37.5,10.9-13.7,22-27.3,34.6-39.6,9.2-9,18.6-17.6,29.1-25,11.6-8.1,23.8-14.4,38.2-15.3,2.9-.2,5.7.4,8.5,1,4.1.9,8,2.2,12.5.9,3.3-.9,9,3.2,9.8,6.2,1.5,5.4,0,9.4-4.4,11.9-6.2,3.5-11.8,1.8-14.6-4.8-1.3-3.1-3.4-4.4-6.8-4.7-11.3-1-21,3-30.4,8.4-12.3,7.2-22.9,16.7-33,26.7-9.9,9.8-19.3,20.2-28,31-9.9,12.3-19.4,24.9-28.3,38-1.2,1.7-2.4,3.5-3.7,5.1-1.7,2.2-1.1,3.7,1.3,4.6,5.6,2,11.1,4.4,16.2,7.6,1.9,1.2,2.8-.1,3.8-1.2,9.3-9.9,18.9-19.5,28.8-28.8,15.1-14.1,30.6-27.8,48.9-37.7,8.3-4.5,17-7.9,26.8-6.5,2.3.3,4.5-.5,6.7-.7,5-.5,9.1,2.1,10.8,6.8,1.3,3.6-.4,8.4-4,10.8-3.8,2.5-9.7,2.2-12.9-.4-1.2-1-1.9-2.4-2.4-3.7-1.1-2.9-3-3.2-5.6-2.7-8.3,1.7-15.6,5.7-22.6,10.3"/>
        <path class="cls-4" d="M534.1,133.4c-1,.3-1.6.9-1.9,1.9-.1.1-.2.2-.3.3-.7,0-1.1.4-1.2,1.2-.1.1-.2.2-.3.4-1,.3-1.7.9-1.9,1.9-.1.1-.2.2-.3.4-.7,0-1.1.4-1.2,1.1-.1.1-.2.2-.3.4-1,.3-1.7.9-1.9,1.9-.1.1-.2.2-.3.3-.7,0-1.1.5-1.2,1.2,0,.1-.2.2-.3.3-1,.3-1.7,1-1.9,2.1"/>
        <path class="cls-4" d="M538.2,129.3c-.1.1-.2.2-.4.4-1,.2-1.6.9-1.9,1.9-.1.1-.2.2-.4.4"/>
        <path class="cls-3" d="M487.1,243.1c-1.8,1.5-2.9,1.1-4.6-.5-1.2-1.1-3-1.8-4.6-2.2-10.2-2.4-19.6,0-28.3,5.4-6.9,4.4-12,10.7-16.9,17.1-7.3,9.6-12.6,20.1-17.7,31-3.2,6.9-5.7,14-8.8,20.8-3.1,6.8-5.5,13.9-8.1,20.9-3.4,9-6.6,18-10.1,27-3.1,7.9-6,15.9-9,23.8-1.5,3.9-2.8,7.9-4.4,11.8-3,7.3-6.1,14.6-8.8,22.1-3,8.2-6.5,16.2-9.9,24.3-2.4,5.7-5.2,11.3-8.1,16.8-3.5,6.6-6.3,13.9-10.3,20.1-7.7,12.1-14.2,25-23.9,35.8-5.1,5.7-9.8,12-15.4,17.2-7.3,6.9-14.9,13.4-22.7,19.7-8.8,7.1-17.6,14.2-26.4,21.2-9.3,7.4-19.1,13.8-29.3,19.9-7.6,4.5-15.3,8.9-23.4,12-9.5,3.7-18.9,7.6-28.9,10-14,3.2-28,6.5-42.5,6.9-9.1.3-18.2.1-27.3,0-6.2,0-12.4,0-18.6-1.2-4.4-.9-8.3-3.2-13-2.2-1.8-1.7-5.8-.6-6.1-3.9,3-1.6,6.1-1.7,9.4-1.9,15-.8,29.9-2.2,44.8-4.8,12.8-2.3,25.2-5.4,37.6-9,11-3.2,21.6-7.8,32-12.8,13-6.2,25.4-13.4,37.5-21.1,9.5-6.1,18-13.6,26.4-21.1,7.6-6.9,15.3-13.9,21.7-21.9,7.6-9.5,16-18.5,22.1-29.4,3.9-6.9,8.4-13.6,12.7-20.4,4.8-7.6,8.8-15.7,12.7-23.9,3-6.3,6.3-12.6,9.4-18.9,3.3-6.8,6.6-13.7,8.9-21,.1-.5.2-1,.5-1.4,7.3-11.2,10.9-24,15.7-36.4,3.3-8.6,7.1-17.2,9.7-26,2.6-8.9,6.6-17.1,8.6-26.2,1.2-5.7,3.8-11.4,6.1-17,2-4.8,3.6-9.8,4.8-14.9,1.7-7,3.8-14.1,7.4-20.6,3.6-6.5,7.2-12.9,11.4-19,3.6-5.3,8.3-9.8,12.1-15,5.1-6.9,11.6-12.5,18.5-17.1,9.2-6.2,19.1-12.2,30.8-12.8,6.5-.4,12.2,2,17.9,5.3,9.2,5.4,19.1,7.7,30,4.9,3-.8,6.5-.4,9.7-1.1-8.8,6.6-17.9,12.8-24.9,21.4"/>
        <path class="cls-1" d="M488.1,242c-7.1,7.8-12.5,17-17.9,25.9-3.6,6-7,12-10.3,18.1-2.9,5.4-5.5,11.1-8,16.7-4.9,10.9-10,21.6-14.5,32.7-5.9,14.4-11.2,28.9-16.7,43.5-3.1,8.3-6.1,16.6-9,24.9-2.2,6.1-4.1,12.2-6.3,18.3-5.4,14.8-10.1,29.7-17.3,43.8-4.9,9.6-10.3,18.9-15.9,28.2-5.5,9.1-12,17.5-19,25.4-2,2-.7.7-2,2,0,0-.3.2-.3.2-1.1,1.4-1.4,1.6-2.8,3.6-.1.2-.2.3-.3.5-.3.3-.4.3-.7.8h0c-1.4,1.3-4.5,4.5-7.3,7.5-4.2,5.2-8.5,10-13.2,14.6-9,8.7-18.6,16.8-28.7,24.1-9.8,7.1-20.1,13.5-30.8,19.4-12.1,6.7-24.9,12.1-37.7,17.2-8.7,3.5-17.8,5.8-26.9,8.3-12.1,3.2-24.4,6.1-36.7,8.1-8.4,1.4-16.9,2.6-25.6,3-8.1.3-16.1,1.5-24.2,1.3-13.6-.3-27.1-1.7-40.2-5.2-3.4-.9-7.3-1.3-10-4.2,4.6-1,9.3,0,13.7.8,6.2,1.2,12.4,1.1,18.6,1.2,9.1.1,18.2.2,27.3,0,14.5-.4,28.5-3.7,42.5-6.9,10-2.3,19.4-6.3,28.9-10,8.2-3.2,15.9-7.5,23.4-12,10.1-6,20-12.5,29.3-19.9,8.8-7,17.7-14.1,26.4-21.2,7.8-6.3,15.5-12.9,22.7-19.7,5.5-5.2,10.3-11.4,15.4-17.2,9.7-10.8,16.1-23.7,23.9-35.8,3.4-5.2,5.9-11.2,8.7-17,3.2-6.6,6.8-13.2,9.7-20,3.4-8,6.9-16,9.9-24.3,2.7-7.4,5.8-14.7,8.8-22.1,1.6-3.9,2.9-7.9,4.4-11.8,3-7.9,6-15.9,9-23.8,3.5-9,6.7-18,10.1-27,2.6-7,5-14.1,8.1-20.9,3.1-6.9,5.6-14,8.8-20.8,5.1-10.9,10.4-21.5,17.7-31,4.9-6.4,10-12.7,16.9-17.1,8.7-5.5,18.1-7.8,28.3-5.4,1.6.4,3.5,1,5,1.6"/>
        <path class="cls-3" d="M180.2,508.3c.5-3,2-5.1,3.4-7.5,1.9-3.3,3.5-6.6,5.8-9.8,1.1-1.5,1.8-2.2,2.8-3.8,2.6-4.2,5.2-8.7,7.9-12.7,1.5-2.3,2.8-4.6,4.1-6.5,1.4-2.1,3.2-3.9,4.6-6.4,5.1-9.2,10-18.5,14.2-28.1,2.5-5.6,4.7-11.2,6.9-17,1.4-3.7,2.6-7.5,4.3-11.2,1.2-2.6,1.7-5.5,2.5-8.2,2.2-7.2,4-14.5,5.3-21.9,2.5-13.5,3.2-27,2.1-40.8-.6-7.5-1.8-14.9-4.3-21.7-2.6-7-6-14.1-11.8-19.4-1-.9-1.8-2-2.6-3.1-.7-.9-2.9-2.5-3.6-3.1-5.4-4.5-10.1-9.4-17.5-11.5-10.5-3-20.8-6.8-32-7.4-7.6-.4-15.4.6-22.7-1.3-1.2-.3-1.6-.2-2.9-1.1-1.7-1.2,1.1-1.8,2.1-2.2,4.9-1.9,9.9-3.4,15.2-4.3,5.6-1,11-2.8,16.8-3.1,11.2-.4,22.6-2,33.4,1.6,10.4,3.5,21.1,6.3,30.3,13,7.5,5.5,14.7,11.4,19.5,19.4,4.4,7.3,6.2,15.5,7,24.1,1.3,13.4,0,26.5-2.5,39.6-2.5,13.3-6.1,26.3-11.1,38.9-1.5,3.8-2.8,8.1-4.4,11.7-3.1,6.7-5.9,14.2-9.6,21.1-2.5,4.8-5.2,9.5-8.5,13.9-2.2,2.9-3.7,6.4-5.8,9.4-4.2,6-7.7,12.5-12.2,18.4-4.8,6.4-9.8,12.8-14.7,19.1-3.8,4.8-7.6,9.7-12.7,13.5-3.4,2.5-6.2,5.7-9.2,8.6h0Z"/>
      </g>
    </g>
  </g>
</svg>